<?xml version="1.0" ?><svg id="WHATSAPP" style="enable-background:new 0 0 32 32;" version="1.1" viewBox="0 0 32 32" xml:space="preserve" xmlns="http://www.w3.org/2000/svg" xmlns:xlink="http://www.w3.org/1999/xlink"><style type="text/css">
	.st0{fill:none;}
</style><title/><g><rect class="st0" height="32" id="Frame" width="32"/><g id="Whatsapp-2"><path d="M16.1,8.9c-3.9,0-7,3.1-7,7c0,1.4,0.4,2.8,1.2,3.9l0.1,0.2l-0.1,0.2l-0.6,2l2-0.6l0.2-0.1l0.2,0.1c1.2,0.8,2.5,1.2,4,1.2    c3.9,0,7-3.1,7-7C23.1,12,20,8.9,16.1,8.9z M19.1,20.6c-4.2,0-7.7-3.4-7.7-7.7c0-0.9,0.8-1.7,1.7-1.7c0.1,0,0.2,0,0.2,0    c0.2,0,0.4,0.1,0.5,0.2l0.5,2.7l-1,0.5c0.6,1.9,2.1,3.5,4,4l0.5-1l0,0l0,0l2.7,0.5c0.1,0.2,0.1,0.3,0.2,0.5c0,0.1,0,0.2,0,0.2    C20.8,19.8,20,20.6,19.1,20.6z"/><path d="M16,2C8.3,2,2,8.3,2,16s6.3,14,14,14s14-6.3,14-14S23.7,2,16,2z M16.1,24.8c-1.6,0-3.1-0.4-4.4-1.2l-3.8,1.2L7,25l0.2-0.8    l1.1-3.9C6,16,7.4,10.6,11.7,8.2s9.7-1,12.1,3.3s1,9.7-3.3,12.1C19.2,24.4,17.7,24.8,16.1,24.8L16.1,24.8z"/></g></g></svg>